<svg xmlns="http://www.w3.org/2000/svg" viewBox="0 0 1280 720" width="1280" height="720">
  <rect width="1280" height="720" fill="#FFFFFF" />
  
  <rect x="0" y="0" width="1280" height="8" fill="url(#topBar)" />
  <linearGradient id="topBar" x1="0%" y1="0%" x2="100%" y2="0%">
    <stop offset="0%" stop-color="#2563EB" />
    <stop offset="100%" stop-color="#06B6D4" />
  </linearGradient>
  
  <rect x="0" y="0" width="6" height="720" fill="#2563EB" />
  
  <g transform="translate(640,180)">
    <path fill="#2563EB" d="M-32,-14 H32 A4,4 0 0 1 36,-10 V-2 A4,4 0 0 1 32,2 H-32 A4,4 0 0 1 -36,-2 V-10 A4,4 0 0 1 -32,-14 Z" />
    <path fill="#2563EB" d="M-10,-36 H10 A4,4 0 0 1 14,-32 V32 A4,4 0 0 1 10,36 H-10 A4,4 0 0 1 -14,32 V-32 A4,4 0 0 1 -10,-36 Z" />
    <circle cx="0" cy="0" r="56" fill="none" stroke="#06B6D4" stroke-width="2" opacity="0.3" />
  </g>
  
  <text x="640" y="300" text-anchor="middle" font-family="Microsoft YaHei, Arial, sans-serif" font-size="64" font-weight="bold" fill="#1E293B">东软云医院系统（HIS）</text>
  
  <text x="640" y="370" text-anchor="middle" font-family="Microsoft YaHei, Arial, sans-serif" font-size="32" fill="#64748B">医院门诊信息管理系统 · 毕业设计答辩</text>
  
  <line x1="540" y1="410" x2="740" y2="410" stroke="#2563EB" stroke-width="3" />
  
  <text x="640" y="480" text-anchor="middle" font-family="Microsoft YaHei, Arial, sans-serif" font-size="24" fill="#94A3B8">前端 Vue 3 + Element Plus · 后端 Spring Boot 3.2.5 · 数据库 MySQL 8.0</text>
  <text x="640" y="530" text-anchor="middle" font-family="Microsoft YaHei, Arial, sans-serif" font-size="20" fill="#94A3B8">2026年7月</text>
  
  <rect x="0" y="712" width="1280" height="8" fill="url(#bottomBar)" />
  <linearGradient id="bottomBar" x1="0%" y1="0%" x2="100%" y2="0%">
    <stop offset="0%" stop-color="#06B6D4" />
    <stop offset="100%" stop-color="#2563EB" />
  </linearGradient>
</svg>