<svg xmlns="http://www.w3.org/2000/svg" viewBox="0 0 1280 720" width="1280" height="720">
  <rect width="1280" height="720" fill="#FFFFFF" />
  <path fill="#2563EB" d="M83,44 H83 A3,3 0 0 1 86,47 V77 A3,3 0 0 1 83,80 H83 A3,3 0 0 1 80,77 V47 A3,3 0 0 1 83,44 Z" />
  <text x="100" y="72" font-family="Microsoft YaHei, Arial, sans-serif" font-size="42" font-weight="bold" fill="#1E293B">数据库设计</text>
  <line x1="100" y1="92" x2="320" y2="92" stroke="#06B6D4" stroke-width="2" />
  <text x="100" y="125" font-family="Microsoft YaHei, Arial, sans-serif" font-size="22" fill="#64748B">hospital_his 数据库 · 12 张核心表 + 1 张系统用户表</text>
  
  <g transform="translate(80,160)">
    <path fill="#F0F4FF" d="M6,0 H164 A6,6 0 0 1 170,6 V54 A6,6 0 0 1 164,60 H6 A6,6 0 0 1 0,54 V6 A6,6 0 0 1 6,0 Z" /><text x="85" y="38" text-anchor="middle" font-family="Microsoft YaHei, Arial, sans-serif" font-size="20" fill="#1E293B">patient 患者</text>
    <path fill="#F0F4FF" d="M196,0 H354 A6,6 0 0 1 360,6 V54 A6,6 0 0 1 354,60 H196 A6,6 0 0 1 190,54 V6 A6,6 0 0 1 196,0 Z" /><text x="275" y="38" text-anchor="middle" font-family="Microsoft YaHei, Arial, sans-serif" font-size="20" fill="#1E293B">department 科室</text>
    <path fill="#F0F4FF" d="M386,0 H544 A6,6 0 0 1 550,6 V54 A6,6 0 0 1 544,60 H386 A6,6 0 0 1 380,54 V6 A6,6 0 0 1 386,0 Z" /><text x="465" y="38" text-anchor="middle" font-family="Microsoft YaHei, Arial, sans-serif" font-size="20" fill="#1E293B">doctor 医生</text>
    <path fill="#F0F4FF" d="M576,0 H734 A6,6 0 0 1 740,6 V54 A6,6 0 0 1 734,60 H576 A6,6 0 0 1 570,54 V6 A6,6 0 0 1 576,0 Z" /><text x="655" y="38" text-anchor="middle" font-family="Microsoft YaHei, Arial, sans-serif" font-size="20" fill="#1E293B">registration 挂号</text>
    <path fill="#F0F4FF" d="M766,0 H924 A6,6 0 0 1 930,6 V54 A6,6 0 0 1 924,60 H766 A6,6 0 0 1 760,54 V6 A6,6 0 0 1 766,0 Z" /><text x="845" y="38" text-anchor="middle" font-family="Microsoft YaHei, Arial, sans-serif" font-size="20" fill="#1E293B">drug 药品</text>
    <path fill="#F0F4FF" d="M956,0 H1114 A6,6 0 0 1 1120,6 V54 A6,6 0 0 1 1114,60 H956 A6,6 0 0 1 950,54 V6 A6,6 0 0 1 956,0 Z" /><text x="1035" y="38" text-anchor="middle" font-family="Microsoft YaHei, Arial, sans-serif" font-size="20" fill="#1E293B">sys_user 用户</text>
    <path fill="#F0F4FF" d="M6,75 H164 A6,6 0 0 1 170,81 V129 A6,6 0 0 1 164,135 H6 A6,6 0 0 1 0,129 V81 A6,6 0 0 1 6,75 Z" /><text x="85" y="113" text-anchor="middle" font-family="Microsoft YaHei, Arial, sans-serif" font-size="20" fill="#1E293B">medical_record</text>
    <path fill="#F0F4FF" d="M196,75 H354 A6,6 0 0 1 360,81 V129 A6,6 0 0 1 354,135 H196 A6,6 0 0 1 190,129 V81 A6,6 0 0 1 196,75 Z" /><text x="275" y="113" text-anchor="middle" font-family="Microsoft YaHei, Arial, sans-serif" font-size="20" fill="#1E293B">prescription</text>
    <path fill="#F0F4FF" d="M386,75 H544 A6,6 0 0 1 550,81 V129 A6,6 0 0 1 544,135 H386 A6,6 0 0 1 380,129 V81 A6,6 0 0 1 386,75 Z" /><text x="465" y="113" text-anchor="middle" font-family="Microsoft YaHei, Arial, sans-serif" font-size="20" fill="#1E293B">prescription_detail</text>
    <path fill="#F0F4FF" d="M576,75 H734 A6,6 0 0 1 740,81 V129 A6,6 0 0 1 734,135 H576 A6,6 0 0 1 570,129 V81 A6,6 0 0 1 576,75 Z" /><text x="655" y="113" text-anchor="middle" font-family="Microsoft YaHei, Arial, sans-serif" font-size="20" fill="#1E293B">examination</text>
    <path fill="#F0F4FF" d="M766,75 H924 A6,6 0 0 1 930,81 V129 A6,6 0 0 1 924,135 H766 A6,6 0 0 1 760,129 V81 A6,6 0 0 1 766,75 Z" /><text x="845" y="113" text-anchor="middle" font-family="Microsoft YaHei, Arial, sans-serif" font-size="20" fill="#1E293B">laboratory</text>
    <path fill="#F0F4FF" d="M956,75 H1114 A6,6 0 0 1 1120,81 V129 A6,6 0 0 1 1114,135 H956 A6,6 0 0 1 950,129 V81 A6,6 0 0 1 956,75 Z" /><text x="1035" y="113" text-anchor="middle" font-family="Microsoft YaHei, Arial, sans-serif" font-size="20" fill="#1E293B">treatment/payment</text>
  </g>
  
  <g transform="translate(80,330)">
    <path fill="#F0F4FF" d="M8,0 H532 A8,8 0 0 1 540,8 V142 A8,8 0 0 1 532,150 H8 A8,8 0 0 1 0,142 V8 A8,8 0 0 1 8,0 Z" />
    <text x="20" y="35" font-family="Microsoft YaHei, Arial, sans-serif" font-size="26" font-weight="bold" fill="#2563EB">核心关联关系</text>
    <text x="20" y="70" font-family="Microsoft YaHei, Arial, sans-serif" font-size="20" fill="#1E293B">registration → patient / doctor / department</text>
    <text x="20" y="100" font-family="Microsoft YaHei, Arial, sans-serif" font-size="20" fill="#1E293B">medical_record → registration / patient / doctor</text>
    <text x="20" y="130" font-family="Microsoft YaHei, Arial, sans-serif" font-size="20" fill="#1E293B">prescription → registration / patient / doctor</text>
  </g>
  <g transform="translate(660,330)">
    <path fill="#F0F4FF" d="M8,0 H532 A8,8 0 0 1 540,8 V142 A8,8 0 0 1 532,150 H8 A8,8 0 0 1 0,142 V8 A8,8 0 0 1 8,0 Z" />
    <text x="20" y="35" font-family="Microsoft YaHei, Arial, sans-serif" font-size="26" font-weight="bold" fill="#06B6D4">设计要点</text>
    <text x="20" y="70" font-family="Microsoft YaHei, Arial, sans-serif" font-size="20" fill="#1E293B">FOREIGN KEY 外键约束保证引用完整性</text>
    <text x="20" y="100" font-family="Microsoft YaHei, Arial, sans-serif" font-size="20" fill="#1E293B">status 字段实现逻辑删除（药品/科室/医生）</text>
    <text x="20" y="130" font-family="Microsoft YaHei, Arial, sans-serif" font-size="20" fill="#1E293B">chief_complaint + present_illness 存储患者自述</text>
  </g>
</svg>