<svg xmlns="http://www.w3.org/2000/svg" viewBox="0 0 1280 720" width="1280" height="720">
  <rect width="1280" height="720" fill="#FFFFFF" />
  <path fill="#2563EB" d="M83,44 H83 A3,3 0 0 1 86,47 V77 A3,3 0 0 1 83,80 H83 A3,3 0 0 1 80,77 V47 A3,3 0 0 1 83,44 Z" />
  <text x="100" y="72" font-family="Microsoft YaHei, Arial, sans-serif" font-size="42" font-weight="bold" fill="#1E293B">管理员角色 — 系统管理</text>
  <line x1="100" y1="92" x2="420" y2="92" stroke="#06B6D4" stroke-width="2" />
  <text x="100" y="125" font-family="Microsoft YaHei, Arial, sans-serif" font-size="22" fill="#64748B">管理员拥有全部管理权限，负责基础数据维护</text>
  
  <g transform="translate(80,160)">
    <path fill="#F0F4FF" d="M6,0 H344 A6,6 0 0 1 350,6 V84 A6,6 0 0 1 344,90 H6 A6,6 0 0 1 0,84 V6 A6,6 0 0 1 6,0 Z" /><text x="30" y="40" font-family="Microsoft YaHei, Arial, sans-serif" font-size="24" fill="#2563EB">挂号管理</text><text x="30" y="70" font-family="Microsoft YaHei, Arial, sans-serif" font-size="18" fill="#64748B">CRUD + 状态流转</text>
    <path fill="#F0F4FF" d="M386,0 H724 A6,6 0 0 1 730,6 V84 A6,6 0 0 1 724,90 H386 A6,6 0 0 1 380,84 V6 A6,6 0 0 1 386,0 Z" /><text x="410" y="40" font-family="Microsoft YaHei, Arial, sans-serif" font-size="24" fill="#2563EB">患者管理</text><text x="410" y="70" font-family="Microsoft YaHei, Arial, sans-serif" font-size="18" fill="#64748B">增删改查+分页+身份证查询</text>
    <path fill="#F0F4FF" d="M766,0 H1104 A6,6 0 0 1 1110,6 V84 A6,6 0 0 1 1104,90 H766 A6,6 0 0 1 760,84 V6 A6,6 0 0 1 766,0 Z" /><text x="790" y="40" font-family="Microsoft YaHei, Arial, sans-serif" font-size="24" fill="#2563EB">医生管理</text><text x="790" y="70" font-family="Microsoft YaHei, Arial, sans-serif" font-size="18" fill="#64748B">删除前检查挂号记录</text>
    <path fill="#F0F4FF" d="M6,110 H344 A6,6 0 0 1 350,116 V194 A6,6 0 0 1 344,200 H6 A6,6 0 0 1 0,194 V116 A6,6 0 0 1 6,110 Z" /><text x="30" y="150" font-family="Microsoft YaHei, Arial, sans-serif" font-size="24" fill="#2563EB">药品管理</text><text x="30" y="180" font-family="Microsoft YaHei, Arial, sans-serif" font-size="18" fill="#64748B">启停状态 + 库存管理</text>
    <path fill="#F0F4FF" d="M386,110 H724 A6,6 0 0 1 730,116 V194 A6,6 0 0 1 724,200 H386 A6,6 0 0 1 380,194 V116 A6,6 0 0 1 386,110 Z" /><text x="410" y="150" font-family="Microsoft YaHei, Arial, sans-serif" font-size="24" fill="#2563EB">科室管理</text><text x="410" y="180" font-family="Microsoft YaHei, Arial, sans-serif" font-size="18" fill="#64748B">只读列表</text>
    <path fill="#F0F4FF" d="M766,110 H1104 A6,6 0 0 1 1110,116 V194 A6,6 0 0 1 1104,200 H766 A6,6 0 0 1 760,194 V116 A6,6 0 0 1 766,110 Z" /><text x="790" y="150" font-family="Microsoft YaHei, Arial, sans-serif" font-size="24" fill="#2563EB">收费管理</text><text x="790" y="180" font-family="Microsoft YaHei, Arial, sans-serif" font-size="18" fill="#64748B">新增+确认支付</text>
  </g>
  
  <path fill="#F0F4FF" d="M88,420 H1192 A8,8 0 0 1 1200,428 V532 A8,8 0 0 1 1192,540 H88 A8,8 0 0 1 80,532 V428 A8,8 0 0 1 88,420 Z" />
  <text x="110" y="465" font-family="Microsoft YaHei, Arial, sans-serif" font-size="26" font-weight="bold" fill="#2563EB">关键设计</text>
  <text x="110" y="500" font-family="Microsoft YaHei, Arial, sans-serif" font-size="22" fill="#1E293B">药品停用 = UPDATE status=0（逻辑删除）· 医生删除前 countRegistrationsByDoctorId 检查</text>
  <text x="110" y="530" font-family="Microsoft YaHei, Arial, sans-serif" font-size="22" fill="#1E293B">挂号费用后端设置 普通 ¥25 / 专家 ¥50 · 首页统计全量数据展示</text>
  
  <path stroke="#E2E8F0" stroke-width="2" stroke-dasharray="6,4" fill="#FAFBFC" d="M84,570 H616 A4,4 0 0 1 620,574 V686 A4,4 0 0 1 616,690 H84 A4,4 0 0 1 80,686 V574 A4,4 0 0 1 84,570 Z" />
  <text x="350" y="635" text-anchor="middle" font-family="Microsoft YaHei, Arial, sans-serif" font-size="18" fill="#94A3B8">此处插入：管理员管理页面截图（药品/患者管理）</text>
</svg>