<svg xmlns="http://www.w3.org/2000/svg" viewBox="0 0 1280 720" width="1280" height="720">
  <rect width="1280" height="720" fill="#FFFFFF" />
  <path fill="#2563EB" d="M83,44 H83 A3,3 0 0 1 86,47 V77 A3,3 0 0 1 83,80 H83 A3,3 0 0 1 80,77 V47 A3,3 0 0 1 83,44 Z" />
  <text x="100" y="72" font-family="Microsoft YaHei, Arial, sans-serif" font-size="42" font-weight="bold" fill="#1E293B">部署与运维</text>
  <line x1="100" y1="92" x2="280" y2="92" stroke="#06B6D4" stroke-width="2" />
  
  <g transform="translate(80,150)">
    <path fill="#F0F4FF" d="M8,0 H352 A8,8 0 0 1 360,8 V292 A8,8 0 0 1 352,300 H8 A8,8 0 0 1 0,292 V8 A8,8 0 0 1 8,0 Z" /><text x="20" y="40" font-family="Microsoft YaHei, Arial, sans-serif" font-size="26" font-weight="bold" fill="#2563EB">后端部署</text><text x="20" y="80" font-family="Consolas, monospace" font-size="18" fill="#1E293B">JDK 21</text><text x="20" y="115" font-family="Consolas, monospace" font-size="18" fill="#1E293B">Maven 3.9.4</text><text x="20" y="150" font-family="Consolas, monospace" font-size="18" fill="#1E293B">MySQL 8.0</text><text x="20" y="195" font-family="Consolas, monospace" font-size="18" fill="#1E293B">mvn clean compile</text><text x="20" y="230" font-family="Consolas, monospace" font-size="18" fill="#1E293B">mvn test</text><text x="20" y="265" font-family="Consolas, monospace" font-size="18" fill="#1E293B">mvn package</text><text x="20" y="295" font-family="Consolas, monospace" font-size="18" fill="#1E293B">java -jar target/</text>
    <path fill="#F0F4FF" d="M398,0 H742 A8,8 0 0 1 750,8 V292 A8,8 0 0 1 742,300 H398 A8,8 0 0 1 390,292 V8 A8,8 0 0 1 398,0 Z" /><text x="410" y="40" font-family="Microsoft YaHei, Arial, sans-serif" font-size="26" font-weight="bold" fill="#06B6D4">前端部署</text><text x="410" y="80" font-family="Consolas, monospace" font-size="18" fill="#1E293B">Node.js + npm</text><text x="410" y="115" font-family="Consolas, monospace" font-size="18" fill="#1E293B">Vue 3 + Vite</text><text x="410" y="150" font-family="Consolas, monospace" font-size="18" fill="#1E293B">npm install</text><text x="410" y="195" font-family="Consolas, monospace" font-size="18" fill="#1E293B">npm run dev (dev)</text><text x="410" y="230" font-family="Consolas, monospace" font-size="18" fill="#1E293B">npm run build (prod)</text><text x="410" y="265" font-family="Consolas, monospace" font-size="18" fill="#1E293B">端口 3000</text><text x="410" y="295" font-family="Consolas, monospace" font-size="18" fill="#1E293B">代理 /api → 8080</text>
    <path fill="#F0F4FF" d="M788,0 H1132 A8,8 0 0 1 1140,8 V292 A8,8 0 0 1 1132,300 H788 A8,8 0 0 1 780,292 V8 A8,8 0 0 1 788,0 Z" /><text x="800" y="40" font-family="Microsoft YaHei, Arial, sans-serif" font-size="26" font-weight="bold" fill="#10B981">构建修复</text><text x="800" y="80" font-family="Microsoft YaHei, Arial, sans-serif" font-size="18" fill="#1E293B">原 pom.xml surefire 3.1.2</text><text x="800" y="115" font-family="Microsoft YaHei, Arial, sans-serif" font-size="18" fill="#1E293B">本地仓库缺少依赖</text><text x="800" y="150" font-family="Microsoft YaHei, Arial, sans-serif" font-size="18" fill="#1E293B">升级 surefire → 3.5.3</text><text x="800" y="195" font-family="Microsoft YaHei, Arial, sans-serif" font-size="18" fill="#1E293B">覆盖 junit-platform 1.11.4</text><text x="800" y="230" font-family="Microsoft YaHei, Arial, sans-serif" font-size="18" fill="#1E293B">显式声明 launcher</text><text x="800" y="265" font-family="Microsoft YaHei, Arial, sans-serif" font-size="18" fill="#10B981">解决: BUILD SUCCESS</text><text x="800" y="295" font-family="Microsoft YaHei, Arial, sans-serif" font-size="18" fill="#1E293B">30个测试全部通过</text>
  </g>
  <text x="640" y="520" text-anchor="middle" font-family="Microsoft YaHei, Arial, sans-serif" font-size="22" fill="#64748B">默认账户：admin/admin123 · 医生 zhangming/123456 · 患者 身份证号/123456</text>
</svg>