<svg xmlns="http://www.w3.org/2000/svg" viewBox="0 0 1280 720" width="1280" height="720">
  <rect width="1280" height="720" fill="#FFFFFF" />
  <path fill="#2563EB" d="M83,44 H83 A3,3 0 0 1 86,47 V77 A3,3 0 0 1 83,80 H83 A3,3 0 0 1 80,77 V47 A3,3 0 0 1 83,44 Z" />
  <text x="100" y="72" font-family="Microsoft YaHei, Arial, sans-serif" font-size="42" font-weight="bold" fill="#1E293B">系统效果展示</text>
  <line x1="100" y1="92" x2="320" y2="92" stroke="#06B6D4" stroke-width="2" />
  <text x="100" y="130" font-family="Microsoft YaHei, Arial, sans-serif" font-size="22" fill="#64748B">12 个业务场景 · 19 个 Vue 页面 · 40+ API 接口 · 三端分离</text>
  
  <path stroke="#E2E8F0" stroke-width="2" stroke-dasharray="6,4" fill="#FAFBFC" d="M148,170 H1132 A8,8 0 0 1 1140,178 V612 A8,8 0 0 1 1132,620 H148 A8,8 0 0 1 140,612 V178 A8,8 0 0 1 148,170 Z" />
  <text x="640" y="380" text-anchor="middle" font-family="Microsoft YaHei, Arial, sans-serif" font-size="28" fill="#94A3B8">此处插入：系统核心页面效果截图</text>
  <text x="640" y="430" text-anchor="middle" font-family="Microsoft YaHei, Arial, sans-serif" font-size="22" fill="#94A3B8">首页仪表盘 · 挂号管理 · 接诊工作台 · 患者门户 · 处方明细</text>
</svg>