<svg xmlns="http://www.w3.org/2000/svg" viewBox="0 0 1280 720" width="1280" height="720">
  <rect width="1280" height="720" fill="#FFFFFF" />
  <path fill="#2563EB" d="M83,44 H83 A3,3 0 0 1 86,47 V77 A3,3 0 0 1 83,80 H83 A3,3 0 0 1 80,77 V47 A3,3 0 0 1 83,44 Z" />
  <text x="100" y="72" font-family="Microsoft YaHei, Arial, sans-serif" font-size="42" font-weight="bold" fill="#1E293B">总结与展望</text>
  <line x1="100" y1="92" x2="320" y2="92" stroke="#06B6D4" stroke-width="2" />
  
  <g transform="translate(80,150)">
    <path fill="#F0F4FF" d="M8,0 H342 A8,8 0 0 1 350,8 V292 A8,8 0 0 1 342,300 H8 A8,8 0 0 1 0,292 V8 A8,8 0 0 1 8,0 Z" /><text x="20" y="40" font-family="Microsoft YaHei, Arial, sans-serif" font-size="26" font-weight="bold" fill="#2563EB">实训收获</text><text x="20" y="85" font-family="Microsoft YaHei, Arial, sans-serif" font-size="22" fill="#1E293B">Spring Boot + Vue3 全栈开发</text><text x="20" y="125" font-family="Microsoft YaHei, Arial, sans-serif" font-size="22" fill="#1E293B">分层架构设计与实现</text><text x="20" y="165" font-family="Microsoft YaHei, Arial, sans-serif" font-size="22" fill="#1E293B">JWT 认证与安全设计</text><text x="20" y="205" font-family="Microsoft YaHei, Arial, sans-serif" font-size="22" fill="#1E293B">JUnit 5 + Mockito 单元测试</text><text x="20" y="245" font-family="Microsoft YaHei, Arial, sans-serif" font-size="22" fill="#1E293B">Git 版本控制与团队协作</text><text x="20" y="285" font-family="Microsoft YaHei, Arial, sans-serif" font-size="22" fill="#1E293B">缺陷定位与调试修复</text>
    <path fill="#F0F4FF" d="M388,0 H722 A8,8 0 0 1 730,8 V292 A8,8 0 0 1 722,300 H388 A8,8 0 0 1 380,292 V8 A8,8 0 0 1 388,0 Z" /><text x="400" y="40" font-family="Microsoft YaHei, Arial, sans-serif" font-size="26" font-weight="bold" fill="#EF4444">改进方向</text><text x="400" y="85" font-family="Microsoft YaHei, Arial, sans-serif" font-size="22" fill="#1E293B">增加 Controller 层测试</text><text x="400" y="125" font-family="Microsoft YaHei, Arial, sans-serif" font-size="22" fill="#1E293B">完善操作日志与审计</text><text x="400" y="165" font-family="Microsoft YaHei, Arial, sans-serif" font-size="22" fill="#1E293B">国际化 i18n 支持</text><text x="400" y="205" font-family="Microsoft YaHei, Arial, sans-serif" font-size="22" fill="#1E293B">Docker 容器化部署</text><text x="400" y="245" font-family="Microsoft YaHei, Arial, sans-serif" font-size="22" fill="#1E293B">前端单元测试</text><text x="400" y="285" font-family="Microsoft YaHei, Arial, sans-serif" font-size="22" fill="#1E293B">响应式移动端适配</text>
    <path fill="#F0F4FF" d="M768,0 H1102 A8,8 0 0 1 1110,8 V292 A8,8 0 0 1 1102,300 H768 A8,8 0 0 1 760,292 V8 A8,8 0 0 1 768,0 Z" /><text x="780" y="40" font-family="Microsoft YaHei, Arial, sans-serif" font-size="26" font-weight="bold" fill="#10B981">致谢</text><text x="780" y="120" text-anchor="middle" font-family="Microsoft YaHei, Arial, sans-serif" font-size="22" fill="#1E293B">感谢各位老师的指导和评审</text><text x="780" y="200" text-anchor="middle" font-family="Microsoft YaHei, Arial, sans-serif" font-size="20" fill="#64748B">项目地址</text><text x="780" y="240" text-anchor="middle" font-family="Consolas, monospace" font-size="18" fill="#2563EB">github.com/xuyinya/hospital-his</text>
  </g>
  <text x="640" y="620" text-anchor="middle" font-family="Microsoft YaHei, Arial, sans-serif" font-size="26" fill="#1E293B">谢谢！请各位老师批评指正</text>
</svg>