<svg xmlns="http://www.w3.org/2000/svg" viewBox="0 0 1280 720" width="1280" height="720">
  <rect width="1280" height="720" fill="#FFFFFF"/>
  <rect x="80" y="44" width="6" height="36" rx="3" fill="#2563EB"/>
  <text x="100" y="72" font-family="Microsoft YaHei, Arial, sans-serif" font-size="42" font-weight="bold" fill="#1E293B">JWT 认证机制</text>
  <line x1="100" y1="92" x2="300" y2="92" stroke="#06B6D4" stroke-width="2"/>
  <!-- 流程 -->
  <g transform="translate(80,140)">
    <rect x="0" y="0" width="180" height="70" rx="6" fill="#2563EB"/><text x="90" y="44" text-anchor="middle" font-family="Microsoft YaHei, Arial, sans-serif" font-size="20" fill="#FFFFFF">用户登录</text>
    <polygon points="190,20 210,35 190,50" fill="#64748B"/>
    <rect x="220" y="0" width="200" height="70" rx="6" fill="#3B82F6"/><text x="320" y="44" text-anchor="middle" font-family="Microsoft YaHei, Arial, sans-serif" font-size="20" fill="#FFFFFF">JwtUtil.generateToken</text>
    <polygon points="430,20 450,35 430,50" fill="#64748B"/>
    <rect x="460" y="0" width="180" height="70" rx="6" fill="#06B6D4"/><text x="550" y="44" text-anchor="middle" font-family="Microsoft YaHei, Arial, sans-serif" font-size="20" fill="#FFFFFF">返回 Token</text>
    <polygon points="650,20 670,35 650,50" fill="#64748B"/>
    <rect x="680" y="0" width="200" height="70" rx="6" fill="#10B981"/><text x="780" y="44" text-anchor="middle" font-family="Microsoft YaHei, Arial, sans-serif" font-size="20" fill="#FFFFFF">Axios 自动携带</text>
    <polygon points="890,20 910,35 890,50" fill="#64748B"/>
    <rect x="920" y="0" width="200" height="70" rx="6" fill="#64748B"/><text x="1020" y="44" text-anchor="middle" font-family="Microsoft YaHei, Arial, sans-serif" font-size="20" fill="#FFFFFF">拦截器解析验证</text>
  </g>
  <!-- 代码+说明 -->
  <rect x="80" y="260" width="720" height="220" rx="6" fill="#1E293B"/>
  <text x="100" y="290" font-family="Consolas, monospace" font-size="17" fill="#E2E8F0">String token = Jwts.builder()</text>
  <text x="130" y="318" font-family="Consolas, monospace" font-size="17" fill="#C9A84C">.subject(String.valueOf(userId))     // 用户ID</text>
  <text x="130" y="346" font-family="Consolas, monospace" font-size="17" fill="#06B6D4">.claim("username", username)         // 用户名</text>
  <text x="130" y="374" font-family="Consolas, monospace" font-size="17" fill="#10B981">.claim("role", role)                 // admin/doctor/patient</text>
  <text x="130" y="402" font-family="Consolas, monospace" font-size="17" fill="#64748B">.claim("doctorId", doctorId)         // 医生ID(可选)</text>
  <text x="130" y="430" font-family="Consolas, monospace" font-size="17" fill="#E2E8F0">.expiration(new Date(now + 86400000))// 24小时过期</text>
  <text x="130" y="458" font-family="Consolas, monospace" font-size="17" fill="#E2E8F0">.signWith(signingKey).compact();</text>
  <!-- 右侧说明 -->
  <g transform="translate(840,260)">
    <rect x="0" y="0" width="360" height="220" rx="8" fill="#F0F4FF"/>
    <text x="20" y="35" font-family="Microsoft YaHei, Arial, sans-serif" font-size="24" font-weight="bold" fill="#2563EB">权限控制链</text>
    <text x="20" y="70" font-family="Microsoft YaHei, Arial, sans-serif" font-size="20" fill="#1E293B">登录 → JWT生成</text>
    <text x="20" y="102" font-family="Microsoft YaHei, Arial, sans-serif" font-size="20" fill="#1E293B">请求 → 拦截器验证</text>
    <text x="20" y="134" font-family="Microsoft YaHei, Arial, sans-serif" font-size="20" fill="#1E293B">Controller → 从Attribute取</text>
    <text x="20" y="166" font-family="Microsoft YaHei, Arial, sans-serif" font-size="20" fill="#1E293B">前端 → 导航守卫角色隔离</text>
    <text x="20" y="198" font-family="Microsoft YaHei, Arial, sans-serif" font-size="20" fill="#1E293B">医生列表 → selectByDeptId</text>
    <text x="20" y="225" font-family="Microsoft YaHei, Arial, sans-serif" font-size="18" fill="#64748B">只查 status=1 在职医生</text>
  </g>
  <text x="640" y="550" text-anchor="middle" font-family="Microsoft YaHei, Arial, sans-serif" font-size="20" fill="#94A3B8">密钥：NeusoftHospitalHIS2026SecretKeyForJWTTokenGeneration · 过期：86400000ms</text>
</svg>
